<?xml version="1.0" encoding="UTF-8"?>
<svg id="Layer_2" xmlns="http://www.w3.org/2000/svg" viewBox="0 0 813.08 211.18">
  <defs>
    <style>
      .cls-1 {
        fill: #e0b763;
      }

      .cls-2 {
        fill: #091d3c;
      }
    </style>
  </defs>
  <g id="Layer_1-2" data-name="Layer_1">
    <g>
      <g>
        <path d="M105.59,179.94c-11.57,0-20.99-9.41-20.99-20.98v-1.58h41.97v1.58c0,11.57-9.41,20.98-20.98,20.98ZM84.88,157.65v1.3c0,11.42,9.29,20.71,20.71,20.71s20.71-9.29,20.71-20.71v-1.3h-41.43Z"/>
        <path d="M126.58,126.57h-41.97v-41.97h41.97v41.97ZM84.88,126.3h41.43v-41.43h-41.43v41.43Z"/>
        <path d="M105.59,179.94c-11.57,0-20.99-9.41-20.99-20.98v-1.58h41.97v1.58c0,11.57-9.41,20.98-20.98,20.98ZM84.88,157.65v1.3c0,11.42,9.29,20.71,20.71,20.71s20.71-9.29,20.71-20.71v-1.3h-41.43Z"/>
        <path d="M126.58,126.57h-41.97v-41.97h41.97v41.97ZM84.88,126.3h41.43v-41.43h-41.43v41.43Z"/>
        <path d="M126.58,126.57h-41.97v-41.97h41.97v41.97ZM84.88,126.3h41.43v-41.43h-41.43v41.43Z"/>
        <path d="M105.59,179.94c-11.57,0-20.99-9.41-20.99-20.98v-1.58h41.97v1.58c0,11.57-9.41,20.98-20.98,20.98ZM84.88,157.65v1.3c0,11.42,9.29,20.71,20.71,20.71s20.71-9.29,20.71-20.71v-1.3h-41.43Z"/>
        <path d="M53.8,126.57h-1.58c-11.57,0-20.98-9.41-20.98-20.98s9.41-20.99,20.98-20.99h1.58v41.97ZM52.22,84.88c-11.42,0-20.71,9.29-20.71,20.71s9.29,20.71,20.71,20.71h1.3v-41.43h-1.3Z"/>
        <path d="M126.58,126.57h-41.97v-41.97h41.97v41.97ZM84.88,126.3h41.43v-41.43h-41.43v41.43Z"/>
        <path d="M53.8,126.57h-1.58c-11.57,0-20.98-9.41-20.98-20.98s9.41-20.99,20.98-20.99h1.58v41.97ZM52.22,84.88c-11.42,0-20.71,9.29-20.71,20.71s9.29,20.71,20.71,20.71h1.3v-41.43h-1.3Z"/>
        <path d="M126.58,126.57h-41.97v-41.97h41.97v41.97ZM84.88,126.3h41.43v-41.43h-41.43v41.43Z"/>
        <path class="cls-2" d="M126.44,84.74v58.34H49.9c-20.7,0-37.49-16.78-37.49-37.49s16.78-37.49,37.49-37.49h3.76v-14.44h-1.73C23.25,53.66,0,76.91,0,105.59h0c0,28.68,23.25,51.93,51.93,51.93h16.18v3.76c0,20.7,16.78,37.49,37.49,37.49s37.49-16.78,37.49-37.49v-76.54h-16.64ZM126.44,158.96c0,11.51-9.34,20.85-20.85,20.85s-20.85-9.34-20.85-20.85v-1.44h41.7v1.44Z"/>
        <g>
          <path class="cls-1" d="M157.52,51.93v1.74h-14.44v-3.76c0-10.35-4.2-19.72-10.98-26.51-6.78-6.79-16.16-10.98-26.51-10.98-20.7,0-37.49,16.78-37.49,37.49v76.54h-14.44V51.93C53.66,23.25,76.91,0,105.59,0c14.34,0,27.32,5.81,36.72,15.21,9.4,9.39,15.21,22.38,15.21,36.72Z"/>
          <path d="M105.59.54c6.94,0,13.67,1.36,20,4.04,6.12,2.59,11.61,6.29,16.33,11.01,4.72,4.72,8.42,10.21,11.01,16.33,2.68,6.33,4.04,13.06,4.04,20v1.2h-13.36v-3.22c0-10.16-3.96-19.71-11.14-26.89-7.18-7.18-16.73-11.14-26.89-11.14s-19.71,3.96-26.89,11.14c-7.18,7.18-11.14,16.73-11.14,26.89v76h-13.36V51.93c0-6.94,1.36-13.67,4.04-20,2.59-6.12,6.29-11.61,11.01-16.33,4.72-4.72,10.22-8.42,16.33-11.01,6.33-2.68,13.06-4.04,20-4.04M105.59,0C76.91,0,53.66,23.25,53.66,51.93v74.51h14.44V49.9c0-20.7,16.78-37.49,37.49-37.49,10.35,0,19.72,4.2,26.51,10.98,6.79,6.78,10.98,16.15,10.98,26.51v3.76h14.44v-1.74c0-14.34-5.81-27.32-15.21-36.72C132.91,5.81,119.93,0,105.59,0h0Z"/>
        </g>
        <g>
          <path class="cls-1" d="M126.44,126.44v16.64H49.9c-20.7,0-37.49-16.78-37.49-37.49s16.78-37.49,37.49-37.49h3.76v16.64h-1.44c-11.51,0-20.85,9.33-20.85,20.85s9.33,20.85,20.85,20.85h74.22Z"/>
          <path d="M53.12,68.64v15.56h-.9c-11.79,0-21.39,9.6-21.39,21.39s9.59,21.39,21.39,21.39h73.68v15.56H49.9c-9.87,0-19.15-3.84-26.12-10.82-6.98-6.98-10.82-16.26-10.82-26.12s3.84-19.15,10.82-26.13c6.98-6.98,16.26-10.82,26.12-10.82h3.22M53.66,68.1h-3.76c-20.7,0-37.49,16.78-37.49,37.49s16.78,37.49,37.49,37.49h76.54v-16.64H52.22c-11.51,0-20.85-9.33-20.85-20.85s9.33-20.85,20.85-20.85h1.44v-16.64h0Z"/>
        </g>
        <g>
          <path class="cls-1" d="M157.52,84.74v74.51c0,28.68-23.25,51.93-51.93,51.93s-51.93-23.25-51.93-51.93v-1.74h14.44v3.76c0,20.7,16.78,37.49,37.49,37.49s37.49-16.78,37.49-37.49v-76.54h14.44Z"/>
          <path d="M156.98,85.28v73.97c0,6.94-1.36,13.67-4.04,20-2.59,6.12-6.29,11.61-11.01,16.33-4.72,4.72-10.22,8.42-16.33,11.01-6.33,2.68-13.06,4.04-20,4.04s-13.67-1.36-20-4.04c-6.12-2.59-11.61-6.29-16.33-11.01-4.72-4.72-8.42-10.22-11.01-16.33-2.68-6.33-4.04-13.06-4.04-20v-1.2h13.36v3.22c0,10.16,3.96,19.71,11.14,26.89,7.18,7.18,16.73,11.14,26.89,11.14s19.71-3.96,26.89-11.14c7.18-7.18,11.14-16.73,11.14-26.89v-76h13.36M157.52,84.74h-14.44v76.54c0,20.7-16.78,37.49-37.49,37.49s-37.49-16.78-37.49-37.49v-3.76h-14.44v1.74c0,28.68,23.25,51.93,51.93,51.93s51.93-23.25,51.93-51.93v-74.51h0Z"/>
        </g>
        <path class="cls-2" d="M159.25,53.66h-16.18v-3.76c0-10.35-4.2-19.72-10.98-26.51-6.78-6.79-16.16-10.98-26.51-10.98-20.7,0-37.49,16.78-37.49,37.49v76.54h16.64v-58.34h76.54c20.7,0,37.49,16.78,37.49,37.49,0,10.35-4.2,19.72-10.98,26.51-6.78,6.79-16.15,10.98-26.51,10.98h-3.76v14.44h1.73c28.68,0,51.93-23.25,51.93-51.93h0c0-28.68-23.25-51.93-51.93-51.93ZM126.44,53.66h-41.7v-1.44c0-11.51,9.34-20.85,20.85-20.85,5.76,0,10.97,2.33,14.74,6.11,3.77,3.77,6.11,8.99,6.11,14.74v1.44Z"/>
        <g>
          <path class="cls-1" d="M198.77,105.59c0,10.35-4.2,19.72-10.98,26.51-6.78,6.79-16.15,10.98-26.51,10.98h-3.76v-16.64h1.44c5.76,0,10.97-2.33,14.74-6.11,3.77-3.77,6.11-8.98,6.11-14.74,0-11.52-9.33-20.85-20.85-20.85h-74.22v-16.64h76.54c20.7,0,37.49,16.78,37.49,37.49Z"/>
          <path d="M161.28,68.64c9.87,0,19.15,3.84,26.12,10.82,6.98,6.98,10.82,16.26,10.82,26.13s-3.84,19.15-10.82,26.12c-6.98,6.98-16.25,10.82-26.12,10.82h-3.22v-15.56h.9c5.72,0,11.09-2.22,15.12-6.26,4.04-4.04,6.26-9.41,6.26-15.12,0-11.8-9.59-21.39-21.39-21.39h-73.68v-15.56h76M161.28,68.1h-76.54v16.64h74.22c11.51,0,20.85,9.33,20.85,20.85,0,5.76-2.33,10.97-6.11,14.74-3.77,3.77-8.98,6.11-14.74,6.11h-1.44v16.64h3.76c10.35,0,19.72-4.2,26.51-10.98,6.79-6.78,10.98-16.15,10.98-26.51,0-20.71-16.78-37.49-37.49-37.49h0Z"/>
        </g>
      </g>
      <g>
        <path class="cls-2" d="M276.48,78.16l21.07-31.44c-4.79.18-9.84.88-15.13,2.07-5.3,1.2-9.84,2.48-13.61,3.83-3.78,1.36-7.15,2.65-10.12,3.87-2.97,1.22-5.1,2.08-6.39,2.59-.32,0-.65-.11-.97-.35-.32-.23-.48-.51-.48-.83,0-.37,1.07-2.63,3.21-6.77,2.14-4.15,4.66-8.59,7.57-13.34,16.12-5.76,30.36-8.64,42.7-8.64,14.28,0,24.18,3.04,29.71,9.12,1.98,2.12,3.51,4.73,4.59,7.84,1.08,3.11,1.62,6.18,1.62,9.22,0,6.91-1.44,13.19-4.32,18.83-2.88,5.64-6.99,10.54-12.33,14.68-5.34,4.15-11.63,7.31-18.86,9.5-7.23,2.19-15.16,3.28-23.77,3.28-1.52,0-4.63-.28-9.33-.83l-6.22,11.33c.64.97.97,1.75.97,2.35,0,1.43-.32,2.63-.97,3.59-.92,1.38-2.14,3.2-3.66,5.46-1.52,2.26-2.55,3.75-3.07,4.49-.53.74-1.13,1.38-1.8,1.93-.67.55-1.32.83-1.97.83-1.34,0-2.19-.4-2.56-1.21-.37-.81-.55-1.92-.55-3.35,0-2.03,1-5.24,3.01-9.64,2-4.4,5.03-10.24,9.09-17.52-2.17-.83-3.85-1.91-5.04-3.25-1.2-1.34-1.8-2.65-1.8-3.94,0-2.86,1.63-5.5,4.91-7.95,3.27-2.44,8.11-4.38,14.51-5.8ZM283.66,80.02l-3.94,6.63c1.75.09,3.3.18,4.66.28,1.36.09,2.5.14,3.42.14,8.06,0,15.05-1.08,20.97-3.25,5.92-2.16,10.62-4.85,14.1-8.05,3.48-3.2,6-6.41,7.57-9.64,1.57-3.22,2.35-5.92,2.35-8.08,0-2.99-1.2-5.34-3.59-7.05-2.4-1.7-5.84-2.87-10.33-3.49-4.49-.62-10.28-.93-17.38-.93.09.51.14,1.13.14,1.87,0,2.4-1.27,5.55-3.8,9.47l-12.02,18.86,9.05-1.04c.74,0,1.11.35,1.11,1.04,0,.6-.6,1.01-1.8,1.24l-10.5,2Z"/>
        <path class="cls-2" d="M336.45,102.76v-4.49c2.49-2.95,4.38-5.46,5.67-7.53-1.48-.51-2.55-1.13-3.21-1.87-.67-.74-1-1.84-1-3.32,0-1.66.69-3.75,2.07-6.29,1.38-2.53,3.09-4.91,5.11-7.12,2.03-2.21,3.87-3.64,5.53-4.28.64-.32,1.27-.48,1.87-.48.92,0,1.38.44,1.38,1.31,0,.78-.71,2.37-2.14,4.77,9.49-1.47,15.48-2.21,17.96-2.21.97,0,1.63.09,2,.28.78.41,1.43,1.38,1.93,2.9.51,1.52.76,3.04.76,4.56,0,.97-.43,2.02-1.28,3.14-.85,1.13-2.31,2.78-4.39,4.94-2.44,2.63-4.49,5.48-6.15,8.57-1.66,3.09-2.49,5.41-2.49,6.98,0,2.17,1.34,3.25,4.01,3.25,2.81,0,7.69-2.86,14.65-8.57v4.63c-3.82,4.01-6.98,7.16-9.47,9.47-2.49,2.3-4.79,4.14-6.91,5.49-2.12,1.36-4.01,2.04-5.67,2.04-1.93,0-3.55-.89-4.84-2.66-1.29-1.77-1.94-4.34-1.94-7.7,0-1.98.51-4.24,1.52-6.77,1.01-2.53,2.5-5.29,4.46-8.26,1.96-2.97,4.16-5.93,6.6-8.88-1.29.28-2.74.56-4.35.86-1.61.3-3.32.61-5.11.93-1.8.32-3.18.58-4.15.76-2.86,5.71-7,10.89-12.44,15.55Z"/>
        <path class="cls-2" d="M389.52,99.92v1.73c0,2.72.67,4.84,2,6.36,1.34,1.52,3.09,2.28,5.25,2.28s4.59-.53,7.01-1.59c2.42-1.06,4.83-2.46,7.22-4.21,2.39-1.75,5.32-4.1,8.78-7.05v4.21c-5.21,6.27-10.09,11.07-14.65,14.41-4.56,3.34-9.19,5.01-13.89,5.01-4.1,0-7.35-1.59-9.74-4.77-2.4-3.18-3.59-7.53-3.59-13.06,0-4.84,1.13-9.22,3.39-13.16,2.26-3.94,5.94-8.1,11.06-12.47,3.5-2.99,6.98-5.25,10.43-6.77,3.46-1.52,6.54-2.28,9.26-2.28,2.16,0,3.88.5,5.15,1.49,1.27.99,1.9,2.48,1.9,4.46,0,2.9-1.08,5.79-3.25,8.67-2.17,2.88-5.47,5.73-9.92,8.57-4.45,2.83-9.92,5.56-16.41,8.19ZM390.21,95.43c4.15-1.61,7.69-3.62,10.64-6.01,2.95-2.4,5.12-4.69,6.53-6.88,1.4-2.19,2.11-3.79,2.11-4.8s-.48-1.59-1.45-1.59c-.83,0-2.18.53-4.04,1.59-1.87,1.06-3.75,2.44-5.67,4.15-1.91,1.7-3.63,3.71-5.15,6.01-1.52,2.3-2.51,4.81-2.97,7.53Z"/>
        <path class="cls-2" d="M419.5,99.37v-1.66c11.88-12.53,20.06-21.3,24.53-26.33,1.01-5.67,3.45-8.5,7.32-8.5.97,0,2,.28,3.11.83l.41,1.31c-.18.55-.28,1.34-.28,2.35,0,.88.33,2.5,1,4.87.67,2.37,1.19,4.36,1.55,5.98.37,1.61.55,3.43.55,5.46,0,3.04-.69,5.95-2.07,8.74-1.38,2.79-3.39,5.46-6.01,8.02s-6.01,5.17-10.16,7.84c1.66.28,2.97.41,3.94.41,1.89,0,3.93-.47,6.12-1.42,2.19-.94,4.42-2.21,6.7-3.8,2.28-1.59,4.94-3.65,7.98-6.18v4.63c-5.9,5.76-11.17,10.12-15.82,13.09-4.65,2.97-8.66,4.46-12.02,4.46-4.33,0-8.34-1.84-12.02-5.53-2.17-2.21-3.51-4.33-4.04-6.36-.53-2.03-.79-4.77-.79-8.22ZM445.28,88.8l-1.24-10.09c-2.86,3.22-8.96,9.42-18.31,18.59,2.76.6,4.65,1.41,5.67,2.42,1.01,1.01,2.44,2.97,4.28,5.87,3.13-1.29,5.54-3.05,7.22-5.29,1.68-2.23,2.52-5.29,2.52-9.16,0-.46-.01-.87-.03-1.24-.02-.37-.06-.74-.1-1.11Z"/>
        <path class="cls-2" d="M496.96,97.44v5.04c-4.47,5.76-8.64,10.1-12.51,13.02-3.87,2.93-7.16,4.39-9.88,4.39-3.78,0-6.59-1.98-8.43-5.94-1.84-3.96-2.76-8.29-2.76-12.99,0-1.8.18-3.51.55-5.15.37-1.63.81-2.98,1.31-4.04.51-1.06,1.45-2.72,2.83-4.98,6.54-10.18,12.53-15.27,17.96-15.27,2.81,0,4.21,1.08,4.21,3.25,0,1.47-.91,3.78-2.73,6.91-1.82,3.13-3.44,5.37-4.87,6.7-4.01,3.87-6.62,6.56-7.84,8.08-1.22,1.52-1.83,3.25-1.83,5.18,0,1.66.62,3.04,1.87,4.15,1.24,1.11,2.86,1.66,4.84,1.66,2.16,0,4.55-.79,7.15-2.38,2.6-1.59,5.98-4.13,10.12-7.63ZM492.26,66.55c-1.15,0-2.25-.44-3.28-1.31-1.04-.87-1.55-1.98-1.55-3.32,0-2.03.97-4.28,2.9-6.77,1.93-2.49,3.94-3.73,6.01-3.73,1.38,0,2.53.43,3.45,1.28.92.85,1.38,2.08,1.38,3.7,0,1.98-.94,4.17-2.83,6.56-1.89,2.4-3.92,3.59-6.08,3.59Z"/>
        <path class="cls-2" d="M527.92,97.58c-4.05,4.61-7.68,8.52-10.88,11.75-3.2,3.23-5.8,5.63-7.81,7.22-2,1.59-3.38,2.38-4.11,2.38-1.2,0-2.55-.97-4.04-2.9-1.5-1.94-2.78-4.4-3.83-7.39-1.06-2.99-1.59-6.03-1.59-9.12,0-4.47,2.16-8.97,6.5-13.51,4.33-4.54,9.26-8.3,14.79-11.3,5.53-2.99,9.67-4.49,12.44-4.49,2.26,0,4.47,1.43,6.63,4.28,3.55-7.42,6.92-14,10.12-19.76,3.2-5.76,5.88-10.04,8.05-12.85,2.16-2.81,3.71-4.21,4.63-4.21,1.01,0,1.95.5,2.8,1.49.85.99,1.28,2.11,1.28,3.35,0,2.4-1.75,6.51-5.25,12.33-3.5,5.83-6.96,11.5-10.36,17.03-3.41,5.53-6.33,10.98-8.77,16.34-2.44,5.37-3.66,10.33-3.66,14.89,0,4.15,1.34,6.22,4.01,6.22,1.61,0,3.64-.91,6.08-2.73,2.44-1.82,5.92-4.87,10.43-9.16v5.04c-9.95,12.85-17.62,19.28-23.01,19.28-2.17,0-3.72-.83-4.66-2.49-.94-1.66-1.42-4.12-1.42-7.39,0-4.42.55-9.19,1.66-14.3ZM533.03,80.72c-4.1,1.38-8.91,3.6-14.44,6.67-5.53,3.06-8.87,5.17-10.02,6.32-1.01.92-1.91,2.65-2.69,5.18-.78,2.53-1.17,4.45-1.17,5.74,0,.78.23,1.43.69,1.93.46.51,1.04.76,1.73.76.64,0,1.38-.28,2.21-.83s2.15-1.63,3.97-3.25c1.82-1.61,3.01-2.65,3.56-3.11.78-.69,2.52-2.18,5.22-4.46s4.66-4.06,5.91-5.35c1.24-1.29,2.3-2.73,3.18-4.32.87-1.59,1.5-3.35,1.87-5.29Z"/>
        <path class="cls-2" d="M566.4,99.92v1.73c0,2.72.67,4.84,2,6.36,1.34,1.52,3.09,2.28,5.25,2.28s4.59-.53,7.01-1.59c2.42-1.06,4.83-2.46,7.22-4.21,2.39-1.75,5.32-4.1,8.78-7.05v4.21c-5.21,6.27-10.09,11.07-14.65,14.41-4.56,3.34-9.19,5.01-13.89,5.01-4.1,0-7.35-1.59-9.74-4.77-2.4-3.18-3.59-7.53-3.59-13.06,0-4.84,1.13-9.22,3.39-13.16,2.26-3.94,5.94-8.1,11.06-12.47,3.5-2.99,6.98-5.25,10.43-6.77,3.46-1.52,6.54-2.28,9.26-2.28,2.16,0,3.88.5,5.15,1.49,1.27.99,1.9,2.48,1.9,4.46,0,2.9-1.08,5.79-3.25,8.67-2.17,2.88-5.47,5.73-9.92,8.57-4.45,2.83-9.92,5.56-16.41,8.19ZM567.09,95.43c4.15-1.61,7.69-3.62,10.64-6.01,2.95-2.4,5.12-4.69,6.53-6.88,1.4-2.19,2.11-3.79,2.11-4.8s-.48-1.59-1.45-1.59c-.83,0-2.18.53-4.04,1.59-1.87,1.06-3.75,2.44-5.67,4.15-1.91,1.7-3.63,3.71-5.15,6.01-1.52,2.3-2.51,4.81-2.97,7.53Z"/>
        <path class="cls-2" d="M643.24,84.93c-8.11,9.03-12.16,15.32-12.16,18.86,0,1.98.81,2.97,2.42,2.97,1.34,0,3.08-.7,5.22-2.11,2.14-1.4,5.49-3.9,10.05-7.5v4.77c-6.54,6.45-11.56,11.1-15.06,13.96-3.5,2.86-6.36,4.28-8.57,4.28-3.78,0-5.67-2.49-5.67-7.46,0-1.47.23-2.92.69-4.35.46-1.43,1.09-2.91,1.9-4.46.81-1.54,2.04-3.75,3.7-6.63,1.66-2.88,3.57-6.14,5.74-9.78-2.63,1.34-5.92,3.98-9.88,7.95-2.58,2.49-4.77,4.85-6.56,7.08-1.8,2.23-3.72,4.72-5.77,7.46-2.05,2.74-3.55,4.58-4.49,5.53-.94.94-1.9,1.42-2.87,1.42-1.48,0-2.83-1.54-4.08-4.63-1.24-3.09-1.87-6.68-1.87-10.78,0-2.53.29-4.51.86-5.94.58-1.43,1.72-3.46,3.42-6.08,3.18-4.88,5.92-8.46,8.22-10.74,2.3-2.28,4.51-3.42,6.63-3.42,1.47,0,2.66.25,3.56.76.9.51,1.35,1.29,1.35,2.35,0,.46-.14.94-.41,1.45-.28.51-.59.97-.93,1.38-.35.41-1.07,1.22-2.18,2.42-7.28,8.06-10.92,13.29-10.92,15.69,0,1.34.44,2,1.31,2,.55,0,1.62-.89,3.21-2.66,1.59-1.77,3.64-4.1,6.15-6.98,2.51-2.88,5.48-5.88,8.91-9.02,3.43-3.13,7.33-6.15,11.71-9.05,2.44-1.7,4.47-2.56,6.08-2.56.74,0,1.46,1.01,2.18,3.04.71,2.03,1.07,4.08,1.07,6.15,0,1.01-.99,2.56-2.97,4.63Z"/>
        <path class="cls-2" d="M672.6,61.58h2.97c2.44-4.38,4.65-7.47,6.63-9.29,1.98-1.82,4.24-2.73,6.77-2.73s3.8.58,3.8,1.73c0,.55-.99,2.05-2.97,4.49-1.98,2.44-3.48,4.49-4.49,6.15,1.57.18,2.96.35,4.18.48,1.22.14,2.18.25,2.87.35-2.63,4.88-5.92,9.88-9.88,14.99-1.29-.09-2.37-.17-3.25-.24-.88-.07-1.76-.14-2.66-.21-.9-.07-1.99-.15-3.28-.24-2.49,4.01-4.57,7.59-6.25,10.74-1.68,3.16-2.97,6.05-3.87,8.67-.9,2.63-1.35,5.11-1.35,7.46,0,3.18,1.27,4.77,3.8,4.77,1.75,0,4.04-.93,6.88-2.8,2.83-1.87,6.62-4.73,11.37-8.6v4.63c-12.44,13.5-21.63,20.25-27.57,20.25-2.07,0-3.74-.81-5.01-2.42-1.27-1.61-1.9-3.68-1.9-6.22,0-1.7.36-3.73,1.07-6.08.71-2.35,1.99-5.9,3.83-10.64-.65.55-1.26,1.09-1.83,1.62-.58.53-1.11,1.01-1.59,1.45-.48.44-1,.9-1.55,1.38-.55.48-1.11.98-1.66,1.49v-4.77c4.84-4.05,10.69-11.17,17.55-21.35-.69-.04-1.34-.08-1.93-.1-.6-.02-1.31-.03-2.14-.03-2.72,0-4.74.19-6.08.55-.55.14-1.07.29-1.55.45-.48.16-.82.24-1,.24s-.28-.14-.28-.41c0-1.52.94-3.8,2.83-6.84,1.52-2.58,2.96-4.49,4.32-5.73,1.36-1.24,3.02-2.08,4.97-2.52,1.96-.44,4.71-.66,8.26-.66Z"/>
        <path class="cls-2" d="M716.76,97.44v5.04c-4.47,5.76-8.64,10.1-12.51,13.02-3.87,2.93-7.16,4.39-9.88,4.39-3.78,0-6.59-1.98-8.43-5.94-1.84-3.96-2.76-8.29-2.76-12.99,0-1.8.18-3.51.55-5.15.37-1.63.81-2.98,1.31-4.04.51-1.06,1.45-2.72,2.83-4.98,6.54-10.18,12.53-15.27,17.96-15.27,2.81,0,4.21,1.08,4.21,3.25,0,1.47-.91,3.78-2.73,6.91-1.82,3.13-3.44,5.37-4.87,6.7-4.01,3.87-6.62,6.56-7.84,8.08-1.22,1.52-1.83,3.25-1.83,5.18,0,1.66.62,3.04,1.87,4.15,1.24,1.11,2.86,1.66,4.84,1.66,2.16,0,4.55-.79,7.15-2.38,2.6-1.59,5.98-4.13,10.12-7.63ZM712.06,66.55c-1.15,0-2.25-.44-3.28-1.31-1.04-.87-1.55-1.98-1.55-3.32,0-2.03.97-4.28,2.9-6.77,1.93-2.49,3.94-3.73,6.01-3.73,1.38,0,2.53.43,3.45,1.28.92.85,1.38,2.08,1.38,3.7,0,1.98-.94,4.17-2.83,6.56-1.89,2.4-3.92,3.59-6.08,3.59Z"/>
        <path class="cls-2" d="M724.22,85.07c7-6.36,13.8-11.08,20.38-14.17,6.59-3.09,11.68-4.63,15.27-4.63.97,0,1.87.4,2.69,1.21.83.81,1.49,1.74,1.97,2.8.48,1.06.73,1.84.73,2.35,0,.83-.32,1.44-.97,1.83-.65.39-1.77.86-3.39,1.42.32.74.74,1.68,1.24,2.83.51,1.15.9,2.08,1.17,2.8.28.71.41,1.35.41,1.9,0,1.11-1.12,3.17-3.35,6.18-2.23,3.02-3.8,5.24-4.7,6.67-.9,1.43-1.35,3.18-1.35,5.25,0,3.41,1.57,5.11,4.7,5.11s8.27-3.02,15.13-9.05v4.21c-11.65,12.94-19.99,19.42-25.01,19.42-1.8,0-3.07-.59-3.83-1.76-.76-1.17-1.14-2.91-1.14-5.22,0-3.64,1.31-8.91,3.94-15.82-6.73,7.46-11.72,12.77-14.99,15.93-3.27,3.16-5.97,4.73-8.08,4.73-1.01,0-2.28-.87-3.8-2.63-1.52-1.75-2.87-4.02-4.04-6.81-1.17-2.79-1.76-5.68-1.76-8.67,0-2.17.21-3.97.62-5.42s1.22-2.94,2.42-4.46c1.2-1.52,3.11-3.52,5.74-6.01ZM757.32,77.47c-11.98,5.48-20.51,10.13-25.6,13.96-5.09,3.82-7.63,7.76-7.63,11.82,0,1.48.25,2.68.76,3.63.51.94,1.2,1.42,2.07,1.42.51,0,1.4-.32,2.69-.97,4.84-2.86,9.26-6.57,13.27-11.16,4.01-4.58,8.82-10.81,14.44-18.69Z"/>
        <path class="cls-2" d="M806.58,96.68v5.11c-9.63,12.76-17.46,19.14-23.49,19.14-3.27,0-5.84-1.78-7.7-5.35-1.87-3.57-2.8-8.26-2.8-14.06,0-4.7,1.11-10.28,3.32-16.76,2.21-6.47,5.17-13.04,8.88-19.69,3.71-6.66,7.55-12.46,11.54-17.41,3.98-4.95,7.68-8.42,11.09-10.4,1.38-.83,2.46-1.24,3.25-1.24.97,0,1.61.43,1.94,1.28.32.85.48,2.31.48,4.39,0,6.4-2.6,14.27-7.81,23.6-5.21,9.33-12.46,18.85-21.77,28.57-.46,2.4-.69,4.24-.69,5.53,0,2.95.63,5.34,1.9,7.19,1.27,1.84,3.03,2.76,5.29,2.76,1.15,0,2.39-.45,3.73-1.35,1.34-.9,2.74-2.01,4.21-3.35,1.47-1.34,4.35-3.98,8.64-7.95ZM785.92,84.24c2.39-2.35,4.71-5.02,6.94-8.02,2.23-2.99,4.34-6.19,6.32-9.6,1.98-3.41,3.53-6.47,4.66-9.19,1.13-2.72,1.69-4.77,1.69-6.15,0-1.06-.37-1.59-1.11-1.59-.28,0-.81.25-1.59.76-2.81,2.3-5.97,6.81-9.47,13.51-3.5,6.7-5.99,13.46-7.46,20.28Z"/>
      </g>
      <g>
        <path class="cls-2" d="M279.16,173.13c-2.67,1.83-6.24,2.74-10.7,2.74-5.09,0-9.06-.71-11.91-2.14-.8-.4-1.08-.95-.82-1.65l1.32-3.51c.29-.88.84-1.15,1.65-.82,2.63,1.1,5.54,1.65,8.73,1.65,2.49,0,4.45-.38,5.9-1.15s2.17-1.92,2.17-3.46c0-.62-.16-1.2-.47-1.73-.31-.53-.64-.96-.99-1.29-.35-.33-.94-.71-1.78-1.15-.84-.44-1.51-.76-2-.96-.49-.2-1.33-.52-2.5-.96-1.5-.55-2.67-1.01-3.51-1.37-.84-.37-1.84-.91-2.99-1.62-1.15-.71-2.03-1.45-2.63-2.2-.6-.75-1.13-1.71-1.59-2.88-.46-1.17-.69-2.49-.69-3.95,0-7.03,4.65-10.54,13.94-10.54,4.21,0,7.7.64,10.48,1.92.81.4,1.08.95.82,1.65l-1.26,3.4c-.33.81-.91,1.06-1.76.77-2.09-.81-4.61-1.21-7.57-1.21-4.65,0-6.97,1.39-6.97,4.17,0,1.65,1.04,3,3.13,4.06.66.33,2.07.93,4.23,1.81,1.21.48,1.98.79,2.31.93.33.15,1.02.46,2.06.93s1.74.84,2.09,1.1c.35.26.91.65,1.67,1.18.77.53,1.3,1.03,1.59,1.51.29.48.64,1.05,1.04,1.73.4.68.68,1.41.82,2.2.15.79.22,1.66.22,2.61,0,3.66-1.34,6.4-4.01,8.23Z"/>
        <path class="cls-2" d="M296.88,158.86v9.93h15.59c.92,0,1.37.44,1.37,1.32v3.9c0,.91-.46,1.37-1.37,1.37h-21.79c-.91,0-1.37-.46-1.37-1.37v-35.95c0-.88.44-1.32,1.32-1.32h21.62c.91,0,1.37.44,1.37,1.32v3.9c0,.91-.46,1.37-1.37,1.37h-15.37v9.17h14.65c.88,0,1.32.46,1.32,1.37v3.62c0,.91-.44,1.37-1.32,1.37h-14.65Z"/>
        <path class="cls-2" d="M333.98,136.74c5.42,0,9.44,1.03,12.08,3.1,2.63,2.07,3.95,5.37,3.95,9.91,0,6.44-3.15,10.34-9.44,11.69l9.33,12.24c.33.4.41.79.25,1.15s-.52.55-1.07.55h-5.21c-.73,0-1.37-.37-1.92-1.1l-8.89-11.8h-5.1v11.53c0,.91-.46,1.37-1.37,1.37h-4.88c-.91,0-1.37-.46-1.37-1.37v-35.95c0-.88.46-1.32,1.37-1.32h12.29ZM333.81,156.12c3.07,0,5.26-.51,6.56-1.54,1.3-1.02,1.95-2.63,1.95-4.83,0-2.31-.65-3.95-1.95-4.94-1.3-.99-3.47-1.48-6.5-1.48h-5.93v12.79h5.87Z"/>
        <path class="cls-2" d="M367.67,175.38c-.84,0-1.41-.44-1.7-1.32l-12.19-35.79c-.15-.48-.13-.85.06-1.12.18-.27.51-.41.99-.41h5.32c.84,0,1.37.4,1.59,1.21l6.59,20.47,2.42,9.06h.11l2.36-9.06,6.59-20.47c.22-.81.75-1.21,1.59-1.21h5.38c.44,0,.75.14.93.41.18.27.2.65.06,1.12l-12.13,35.79c-.29.88-.88,1.32-1.76,1.32h-6.2Z"/>
        <path class="cls-2" d="M393.69,138.06c0-.88.44-1.32,1.32-1.32h4.99c.92,0,1.37.44,1.37,1.32v35.95c0,.91-.46,1.37-1.37,1.37h-4.99c-.88,0-1.32-.46-1.32-1.37v-35.95Z"/>
        <path class="cls-2" d="M434.13,167.59c.84-.33,1.46-.07,1.87.77l1.54,3.4c.26.62-.02,1.17-.82,1.65-2.63,1.72-6.13,2.58-10.48,2.58-5.67,0-10.07-1.68-13.2-5.05s-4.69-8.32-4.69-14.87,1.55-11.52,4.64-14.9c3.09-3.38,7.42-5.08,12.98-5.08,4.21,0,7.67.82,10.37,2.47.77.51,1.02,1.08.77,1.7l-1.48,3.35c-.33.84-.95,1.06-1.87.66-1.98-.92-4.17-1.37-6.59-1.37-3.73,0-6.5,1.08-8.32,3.24-1.81,2.16-2.72,5.47-2.72,9.93s.92,7.77,2.77,9.91c1.85,2.14,4.69,3.21,8.53,3.21,2.49,0,4.72-.53,6.7-1.59Z"/>
        <path class="cls-2" d="M451.25,158.86v9.93h15.59c.92,0,1.37.44,1.37,1.32v3.9c0,.91-.46,1.37-1.37,1.37h-21.79c-.91,0-1.37-.46-1.37-1.37v-35.95c0-.88.44-1.32,1.32-1.32h21.62c.91,0,1.37.44,1.37,1.32v3.9c0,.91-.46,1.37-1.37,1.37h-15.37v9.17h14.65c.88,0,1.32.46,1.32,1.37v3.62c0,.91-.44,1.37-1.32,1.37h-14.65Z"/>
        <path class="cls-2" d="M508.55,136.74c.81,0,1.35.42,1.65,1.26l12.79,35.84c.15.44.13.8-.05,1.1-.18.29-.49.44-.93.44h-5.32c-.8,0-1.34-.4-1.59-1.21l-2.52-7.19h-14.27l-2.52,7.19c-.26.81-.77,1.21-1.54,1.21h-5.32c-.48,0-.81-.15-1.02-.44-.2-.29-.21-.66-.03-1.1l12.79-35.84c.29-.84.84-1.26,1.65-1.26h6.26ZM510.85,160.51l-5.32-16.19h-.16l-5.43,16.19h10.92Z"/>
        <path class="cls-2" d="M529.62,175.38c-.91,0-1.37-.46-1.37-1.37v-35.95c0-.88.44-1.32,1.32-1.32h11.91c5.53,0,9.62,1.08,12.29,3.24s4.01,5.65,4.01,10.48-1.34,8.37-4.01,10.51-6.77,3.21-12.29,3.21h-5.6v9.82c0,.91-.46,1.37-1.37,1.37h-4.88ZM541.42,157.6c3.04,0,5.23-.55,6.59-1.65,1.35-1.1,2.03-2.93,2.03-5.49s-.68-4.39-2.03-5.49c-1.35-1.1-3.55-1.65-6.59-1.65h-5.54v14.27h5.54Z"/>
        <path class="cls-2" d="M578.58,136.74c.81,0,1.35.42,1.65,1.26l12.79,35.84c.15.44.13.8-.05,1.1-.18.29-.49.44-.93.44h-5.32c-.8,0-1.34-.4-1.59-1.21l-2.52-7.19h-14.27l-2.52,7.19c-.26.81-.77,1.21-1.54,1.21h-5.32c-.48,0-.81-.15-1.02-.44-.2-.29-.21-.66-.03-1.1l12.79-35.84c.29-.84.84-1.26,1.65-1.26h6.26ZM580.88,160.51l-5.32-16.19h-.16l-5.43,16.19h10.92Z"/>
        <path class="cls-2" d="M611.94,136.74c5.42,0,9.44,1.03,12.08,3.1,2.63,2.07,3.95,5.37,3.95,9.91,0,6.44-3.15,10.34-9.44,11.69l9.33,12.24c.33.4.41.79.25,1.15s-.52.55-1.07.55h-5.21c-.73,0-1.37-.37-1.92-1.1l-8.89-11.8h-5.1v11.53c0,.91-.46,1.37-1.37,1.37h-4.88c-.91,0-1.37-.46-1.37-1.37v-35.95c0-.88.46-1.32,1.37-1.32h12.29ZM611.78,156.12c3.07,0,5.26-.51,6.56-1.54,1.3-1.02,1.95-2.63,1.95-4.83,0-2.31-.65-3.95-1.95-4.94-1.3-.99-3.47-1.48-6.5-1.48h-5.93v12.79h5.87Z"/>
        <path class="cls-2" d="M631.81,138.06c0-.88.44-1.32,1.32-1.32h25.41c.91,0,1.37.44,1.37,1.32v4.17c0,.91-.46,1.37-1.37,1.37h-8.84v30.41c0,.91-.46,1.37-1.37,1.37h-4.94c-.92,0-1.37-.46-1.37-1.37v-30.41h-8.84c-.91,0-1.37-.46-1.37-1.37v-4.17Z"/>
        <path class="cls-2" d="M682.63,165.34l-9.71-15.92v24.59c0,.91-.44,1.37-1.32,1.37h-4.78c-.91,0-1.37-.46-1.37-1.37v-35.95c0-.88.46-1.32,1.37-1.32h4.67c.77,0,1.3.26,1.59.77l10.76,17.67,10.76-17.67c.29-.51.8-.77,1.54-.77h4.72c.92,0,1.37.44,1.37,1.32v35.95c0,.91-.46,1.37-1.37,1.37h-4.77c-.88,0-1.32-.46-1.32-1.37v-24.59l-9.71,15.92c-.29.48-.7.71-1.21.71-.55,0-.95-.24-1.21-.71Z"/>
        <path class="cls-2" d="M717.91,158.86v9.93h15.59c.92,0,1.37.44,1.37,1.32v3.9c0,.91-.46,1.37-1.37,1.37h-21.79c-.91,0-1.37-.46-1.37-1.37v-35.95c0-.88.44-1.32,1.32-1.32h21.62c.91,0,1.37.44,1.37,1.32v3.9c0,.91-.46,1.37-1.37,1.37h-15.37v9.17h14.65c.88,0,1.32.46,1.32,1.37v3.62c0,.91-.44,1.37-1.32,1.37h-14.65Z"/>
        <path class="cls-2" d="M772.14,174.01c0,.91-.44,1.37-1.32,1.37h-4.94c-.77,0-1.34-.31-1.7-.93l-15.42-24.86v24.42c0,.91-.44,1.37-1.32,1.37h-4.72c-.91,0-1.37-.46-1.37-1.37v-35.95c0-.88.46-1.32,1.37-1.32h4.83c.84,0,1.43.29,1.76.88l15.42,24.92v-24.48c0-.88.44-1.32,1.32-1.32h4.77c.88,0,1.32.42,1.32,1.26v36.01Z"/>
        <path class="cls-2" d="M777.67,138.06c0-.88.44-1.32,1.32-1.32h25.41c.91,0,1.37.44,1.37,1.32v4.17c0,.91-.46,1.37-1.37,1.37h-8.84v30.41c0,.91-.46,1.37-1.37,1.37h-4.94c-.92,0-1.37-.46-1.37-1.37v-30.41h-8.84c-.91,0-1.37-.46-1.37-1.37v-4.17Z"/>
      </g>
    </g>
  </g>
</svg>