<?xml version="1.0" encoding="UTF-8"?>
<svg xmlns="http://www.w3.org/2000/svg" version="1.1" viewBox="0 0 813.1 211.2">
  <defs>
    <style>
      .cls-1 {
        fill: #fff;
      }
    </style>
  </defs>
  <!-- Generator: Adobe Illustrator 28.6.0, SVG Export Plug-In . SVG Version: 1.2.0 Build 709)  -->
  <g>
    <g id="Layer_2">
      <g>
        <path class="cls-1" d="M105.6,179.9c-11.6,0-21-9.4-21-21v-1.6h42v1.6c0,11.6-9.4,21-21,21ZM84.9,157.6v1.3c0,11.4,9.3,20.7,20.7,20.7s20.7-9.3,20.7-20.7v-1.3h-41.4,0Z"/>
        <path class="cls-1" d="M126.6,126.6h-42v-42h42v42ZM84.9,126.3h41.4v-41.4h-41.4v41.4Z"/>
        <path class="cls-1" d="M105.6,179.9c-11.6,0-21-9.4-21-21v-1.6h42v1.6c0,11.6-9.4,21-21,21ZM84.9,157.6v1.3c0,11.4,9.3,20.7,20.7,20.7s20.7-9.3,20.7-20.7v-1.3h-41.4,0Z"/>
        <path class="cls-1" d="M126.6,126.6h-42v-42h42v42ZM84.9,126.3h41.4v-41.4h-41.4v41.4Z"/>
        <path class="cls-1" d="M126.6,126.6h-42v-42h42v42ZM84.9,126.3h41.4v-41.4h-41.4v41.4Z"/>
        <path class="cls-1" d="M105.6,179.9c-11.6,0-21-9.4-21-21v-1.6h42v1.6c0,11.6-9.4,21-21,21ZM84.9,157.6v1.3c0,11.4,9.3,20.7,20.7,20.7s20.7-9.3,20.7-20.7v-1.3h-41.4,0Z"/>
        <path class="cls-1" d="M53.8,126.6h-1.6c-11.6,0-21-9.4-21-21s9.4-21,21-21h1.6v42ZM52.2,84.9c-11.4,0-20.7,9.3-20.7,20.7s9.3,20.7,20.7,20.7h1.3v-41.4h-1.3Z"/>
        <path class="cls-1" d="M126.6,126.6h-42v-42h42v42ZM84.9,126.3h41.4v-41.4h-41.4v41.4Z"/>
        <path class="cls-1" d="M53.8,126.6h-1.6c-11.6,0-21-9.4-21-21s9.4-21,21-21h1.6v42ZM52.2,84.9c-11.4,0-20.7,9.3-20.7,20.7s9.3,20.7,20.7,20.7h1.3v-41.4h-1.3Z"/>
        <path class="cls-1" d="M126.6,126.6h-42v-42h42v42ZM84.9,126.3h41.4v-41.4h-41.4v41.4Z"/>
        <path class="cls-1" d="M126.4,84.7v58.3H49.9c-20.7,0-37.5-16.8-37.5-37.5s16.8-37.5,37.5-37.5h3.8v-14.4h-1.7c-28.7,0-51.9,23.3-51.9,51.9h0c0,28.7,23.2,51.9,51.9,51.9h16.2v3.8c0,20.7,16.8,37.5,37.5,37.5s37.5-16.8,37.5-37.5v-76.5h-16.7ZM126.4,159c0,11.5-9.3,20.9-20.8,20.9s-20.8-9.3-20.8-20.9v-1.4h41.7v1.4Z"/>
        <path class="cls-1" d="M105.6.5c6.9,0,13.7,1.4,20,4,6.1,2.6,11.6,6.3,16.3,11,4.7,4.7,8.4,10.2,11,16.3,2.7,6.3,4,13.1,4,20v1.2h-13.4v-3.2c0-10.2-4-19.7-11.1-26.9-7.2-7.2-16.7-11.1-26.9-11.1s-19.7,4-26.9,11.1-11.1,16.7-11.1,26.9v76h-13.4V51.9c0-6.9,1.4-13.7,4-20,2.6-6.1,6.3-11.6,11-16.3s10.2-8.4,16.3-11c6.3-2.7,13.1-4,20-4M105.6,0C76.9,0,53.7,23.2,53.7,51.9v74.5h14.4V49.9c0-20.7,16.8-37.5,37.5-37.5s19.7,4.2,26.5,11c6.8,6.8,11,16.2,11,26.5v3.8h14.4v-1.7c0-14.3-5.8-27.3-15.2-36.7C132.9,5.8,119.9,0,105.6,0h0Z"/>
        <path class="cls-1" d="M53.1,68.6v15.6h-.9c-11.8,0-21.4,9.6-21.4,21.4s9.6,21.4,21.4,21.4h73.7v15.6H49.9c-9.9,0-19.1-3.8-26.1-10.8-7-7-10.8-16.3-10.8-26.1s3.8-19.2,10.8-26.1c7-7,16.3-10.8,26.1-10.8h3.2M53.7,68.1h-3.8c-20.7,0-37.5,16.8-37.5,37.5s16.8,37.5,37.5,37.5h76.5v-16.6H52.2c-11.5,0-20.9-9.3-20.9-20.8s9.3-20.8,20.9-20.8h1.4v-16.6h0Z"/>
        <path class="cls-1" d="M157,85.3v74c0,6.9-1.4,13.7-4,20-2.6,6.1-6.3,11.6-11,16.3s-10.2,8.4-16.3,11c-6.3,2.7-13.1,4-20,4s-13.7-1.4-20-4c-6.1-2.6-11.6-6.3-16.3-11s-8.4-10.2-11-16.3c-2.7-6.3-4-13.1-4-20v-1.2h13.4v3.2c0,10.2,4,19.7,11.1,26.9s16.7,11.1,26.9,11.1,19.7-4,26.9-11.1c7.2-7.2,11.1-16.7,11.1-26.9v-76h13.4M157.5,84.7h-14.4v76.5c0,20.7-16.8,37.5-37.5,37.5s-37.5-16.8-37.5-37.5v-3.8h-14.4v1.7c0,28.7,23.2,51.9,51.9,51.9s51.9-23.2,51.9-51.9v-74.5h0Z"/>
        <path class="cls-1" d="M159.2,53.7h-16.2v-3.8c0-10.3-4.2-19.7-11-26.5-6.8-6.8-16.2-11-26.5-11-20.7,0-37.5,16.8-37.5,37.5v76.5h16.6v-58.3h76.5c20.7,0,37.5,16.8,37.5,37.5s-4.2,19.7-11,26.5-16.1,11-26.5,11h-3.8v14.4h1.7c28.7,0,51.9-23.2,51.9-51.9h0c0-28.7-23.2-51.9-51.9-51.9h0ZM126.4,53.7h-41.7v-1.4c0-11.5,9.3-20.9,20.8-20.9s11,2.3,14.7,6.1c3.8,3.8,6.1,9,6.1,14.7v1.4Z"/>
        <path class="cls-1" d="M161.3,68.6c9.9,0,19.1,3.8,26.1,10.8,7,7,10.8,16.3,10.8,26.1s-3.8,19.2-10.8,26.1c-7,7-16.2,10.8-26.1,10.8h-3.2v-15.6h.9c5.7,0,11.1-2.2,15.1-6.3,4-4,6.3-9.4,6.3-15.1,0-11.8-9.6-21.4-21.4-21.4h-73.7v-15.6h76M161.3,68.1h-76.5v16.6h74.2c11.5,0,20.9,9.3,20.9,20.8s-2.3,11-6.1,14.7c-3.8,3.8-9,6.1-14.7,6.1h-1.4v16.6h3.8c10.4,0,19.7-4.2,26.5-11s11-16.2,11-26.5c0-20.7-16.8-37.5-37.5-37.5h0Z"/>
      </g>
      <g>
        <path class="cls-1" d="M276.5,78.2l21.1-31.4c-4.8.2-9.8.9-15.1,2.1-5.3,1.2-9.8,2.5-13.6,3.8-3.8,1.4-7.1,2.7-10.1,3.9-3,1.2-5.1,2.1-6.4,2.6-.3,0-.6-.1-1-.3-.3-.2-.5-.5-.5-.8s1.1-2.6,3.2-6.8c2.1-4.2,4.7-8.6,7.6-13.3,16.1-5.8,30.4-8.6,42.7-8.6s24.2,3,29.7,9.1c2,2.1,3.5,4.7,4.6,7.8s1.6,6.2,1.6,9.2c0,6.9-1.4,13.2-4.3,18.8s-7,10.5-12.3,14.7c-5.3,4.2-11.6,7.3-18.9,9.5-7.2,2.2-15.2,3.3-23.8,3.3s-4.6-.3-9.3-.8l-6.2,11.3c.6,1,1,1.8,1,2.3,0,1.4-.3,2.6-1,3.6-.9,1.4-2.1,3.2-3.7,5.5s-2.5,3.8-3.1,4.5c-.5.7-1.1,1.4-1.8,1.9-.7.6-1.3.8-2,.8-1.3,0-2.2-.4-2.6-1.2-.4-.8-.6-1.9-.6-3.3,0-2,1-5.2,3-9.6,2-4.4,5-10.2,9.1-17.5-2.2-.8-3.9-1.9-5-3.2-1.2-1.3-1.8-2.7-1.8-3.9,0-2.9,1.6-5.5,4.9-7.9,3.3-2.4,8.1-4.4,14.5-5.8h0ZM283.7,80l-3.9,6.6c1.8,0,3.3.2,4.7.3,1.4,0,2.5.1,3.4.1,8.1,0,15-1.1,21-3.2,5.9-2.2,10.6-4.8,14.1-8.1,3.5-3.2,6-6.4,7.6-9.6,1.6-3.2,2.4-5.9,2.4-8.1s-1.2-5.3-3.6-7c-2.4-1.7-5.8-2.9-10.3-3.5-4.5-.6-10.3-.9-17.4-.9,0,.5.1,1.1.1,1.9,0,2.4-1.3,5.5-3.8,9.5l-12,18.9,9-1c.7,0,1.1.3,1.1,1s-.6,1-1.8,1.2l-10.5,2h0Z"/>
        <path class="cls-1" d="M336.5,102.8v-4.5c2.5-2.9,4.4-5.5,5.7-7.5-1.5-.5-2.5-1.1-3.2-1.9-.7-.7-1-1.8-1-3.3s.7-3.8,2.1-6.3c1.4-2.5,3.1-4.9,5.1-7.1,2-2.2,3.9-3.6,5.5-4.3.6-.3,1.3-.5,1.9-.5.9,0,1.4.4,1.4,1.3s-.7,2.4-2.1,4.8c9.5-1.5,15.5-2.2,18-2.2s1.6,0,2,.3c.8.4,1.4,1.4,1.9,2.9.5,1.5.8,3,.8,4.6s-.4,2-1.3,3.1c-.9,1.1-2.3,2.8-4.4,4.9-2.4,2.6-4.5,5.5-6.1,8.6s-2.5,5.4-2.5,7,1.3,3.2,4,3.2,7.7-2.9,14.6-8.6v4.6c-3.8,4-7,7.2-9.5,9.5-2.5,2.3-4.8,4.1-6.9,5.5-2.1,1.4-4,2-5.7,2s-3.5-.9-4.8-2.7c-1.3-1.8-1.9-4.3-1.9-7.7s.5-4.2,1.5-6.8c1-2.5,2.5-5.3,4.5-8.3s4.2-5.9,6.6-8.9c-1.3.3-2.7.6-4.4.9-1.6.3-3.3.6-5.1.9-1.8.3-3.2.6-4.1.8-2.9,5.7-7,10.9-12.4,15.6h0Z"/>
        <path class="cls-1" d="M389.5,99.9v1.7c0,2.7.7,4.8,2,6.4,1.3,1.5,3.1,2.3,5.2,2.3s4.6-.5,7-1.6,4.8-2.5,7.2-4.2,5.3-4.1,8.8-7.1v4.2c-5.2,6.3-10.1,11.1-14.6,14.4s-9.2,5-13.9,5-7.4-1.6-9.7-4.8c-2.4-3.2-3.6-7.5-3.6-13.1s1.1-9.2,3.4-13.2,5.9-8.1,11.1-12.5c3.5-3,7-5.2,10.4-6.8,3.5-1.5,6.5-2.3,9.3-2.3s3.9.5,5.1,1.5,1.9,2.5,1.9,4.5c0,2.9-1.1,5.8-3.2,8.7s-5.5,5.7-9.9,8.6c-4.5,2.8-9.9,5.6-16.4,8.2h0ZM390.2,95.4c4.1-1.6,7.7-3.6,10.6-6,3-2.4,5.1-4.7,6.5-6.9,1.4-2.2,2.1-3.8,2.1-4.8s-.5-1.6-1.5-1.6-2.2.5-4,1.6c-1.9,1.1-3.8,2.4-5.7,4.2-1.9,1.7-3.6,3.7-5.1,6s-2.5,4.8-3,7.5h0Z"/>
        <path class="cls-1" d="M419.5,99.4v-1.7c11.9-12.5,20.1-21.3,24.5-26.3,1-5.7,3.5-8.5,7.3-8.5s2,.3,3.1.8l.4,1.3c-.2.6-.3,1.3-.3,2.3s.3,2.5,1,4.9,1.2,4.4,1.5,6c.4,1.6.5,3.4.5,5.5,0,3-.7,5.9-2.1,8.7s-3.4,5.5-6,8-6,5.2-10.2,7.8c1.7.3,3,.4,3.9.4,1.9,0,3.9-.5,6.1-1.4,2.2-.9,4.4-2.2,6.7-3.8,2.3-1.6,4.9-3.7,8-6.2v4.6c-5.9,5.8-11.2,10.1-15.8,13.1-4.6,3-8.7,4.5-12,4.5s-8.3-1.8-12-5.5c-2.2-2.2-3.5-4.3-4-6.4s-.8-4.8-.8-8.2h0ZM445.3,88.8l-1.2-10.1c-2.9,3.2-9,9.4-18.3,18.6,2.8.6,4.6,1.4,5.7,2.4,1,1,2.4,3,4.3,5.9,3.1-1.3,5.5-3.1,7.2-5.3,1.7-2.2,2.5-5.3,2.5-9.2s0-.9,0-1.2c0-.4,0-.7-.1-1.1h0Z"/>
        <path class="cls-1" d="M497,97.4v5c-4.5,5.8-8.6,10.1-12.5,13-3.9,2.9-7.2,4.4-9.9,4.4s-6.6-2-8.4-5.9-2.8-8.3-2.8-13,.2-3.5.5-5.2c.4-1.6.8-3,1.3-4,.5-1.1,1.5-2.7,2.8-5,6.5-10.2,12.5-15.3,18-15.3s4.2,1.1,4.2,3.2-.9,3.8-2.7,6.9c-1.8,3.1-3.4,5.4-4.9,6.7-4,3.9-6.6,6.6-7.8,8.1-1.2,1.5-1.8,3.2-1.8,5.2s.6,3,1.9,4.2c1.2,1.1,2.9,1.7,4.8,1.7s4.5-.8,7.1-2.4,6-4.1,10.1-7.6h0ZM492.3,66.6c-1.1,0-2.2-.4-3.3-1.3-1-.9-1.5-2-1.5-3.3,0-2,1-4.3,2.9-6.8s3.9-3.7,6-3.7,2.5.4,3.5,1.3,1.4,2.1,1.4,3.7-.9,4.2-2.8,6.6c-1.9,2.4-3.9,3.6-6.1,3.6h0Z"/>
        <path class="cls-1" d="M527.9,97.6c-4,4.6-7.7,8.5-10.9,11.8-3.2,3.2-5.8,5.6-7.8,7.2-2,1.6-3.4,2.4-4.1,2.4-1.2,0-2.5-1-4-2.9-1.5-1.9-2.8-4.4-3.8-7.4-1.1-3-1.6-6-1.6-9.1,0-4.5,2.2-9,6.5-13.5,4.3-4.5,9.3-8.3,14.8-11.3,5.5-3,9.7-4.5,12.4-4.5s4.5,1.4,6.6,4.3c3.5-7.4,6.9-14,10.1-19.8s5.9-10,8-12.8c2.2-2.8,3.7-4.2,4.6-4.2s2,.5,2.8,1.5,1.3,2.1,1.3,3.3c0,2.4-1.8,6.5-5.2,12.3-3.5,5.8-7,11.5-10.4,17-3.4,5.5-6.3,11-8.8,16.3-2.4,5.4-3.7,10.3-3.7,14.9s1.3,6.2,4,6.2,3.6-.9,6.1-2.7,5.9-4.9,10.4-9.2v5c-10,12.8-17.6,19.3-23,19.3s-3.7-.8-4.7-2.5c-.9-1.7-1.4-4.1-1.4-7.4s.5-9.2,1.7-14.3h0ZM533,80.7c-4.1,1.4-8.9,3.6-14.4,6.7-5.5,3.1-8.9,5.2-10,6.3-1,.9-1.9,2.7-2.7,5.2s-1.2,4.4-1.2,5.7.2,1.4.7,1.9c.5.5,1,.8,1.7.8s1.4-.3,2.2-.8,2.1-1.6,4-3.2c1.8-1.6,3-2.7,3.6-3.1.8-.7,2.5-2.2,5.2-4.5s4.7-4.1,5.9-5.3c1.2-1.3,2.3-2.7,3.2-4.3.9-1.6,1.5-3.3,1.9-5.3h0Z"/>
        <path class="cls-1" d="M566.4,99.9v1.7c0,2.7.7,4.8,2,6.4,1.3,1.5,3.1,2.3,5.2,2.3s4.6-.5,7-1.6,4.8-2.5,7.2-4.2c2.4-1.8,5.3-4.1,8.8-7.1v4.2c-5.2,6.3-10.1,11.1-14.7,14.4s-9.2,5-13.9,5-7.3-1.6-9.7-4.8c-2.4-3.2-3.6-7.5-3.6-13.1s1.1-9.2,3.4-13.2,5.9-8.1,11.1-12.5c3.5-3,7-5.2,10.4-6.8,3.5-1.5,6.5-2.3,9.3-2.3s3.9.5,5.2,1.5,1.9,2.5,1.9,4.5c0,2.9-1.1,5.8-3.2,8.7s-5.5,5.7-9.9,8.6c-4.5,2.8-9.9,5.6-16.4,8.2h0ZM567.1,95.4c4.2-1.6,7.7-3.6,10.6-6,3-2.4,5.1-4.7,6.5-6.9,1.4-2.2,2.1-3.8,2.1-4.8s-.5-1.6-1.5-1.6-2.2.5-4,1.6c-1.9,1.1-3.8,2.4-5.7,4.2-1.9,1.7-3.6,3.7-5.2,6s-2.5,4.8-3,7.5h0Z"/>
        <path class="cls-1" d="M643.2,84.9c-8.1,9-12.2,15.3-12.2,18.9s.8,3,2.4,3,3.1-.7,5.2-2.1c2.1-1.4,5.5-3.9,10-7.5v4.8c-6.5,6.4-11.6,11.1-15.1,14s-6.4,4.3-8.6,4.3c-3.8,0-5.7-2.5-5.7-7.5s.2-2.9.7-4.3,1.1-2.9,1.9-4.5c.8-1.5,2-3.8,3.7-6.6,1.7-2.9,3.6-6.1,5.7-9.8-2.6,1.3-5.9,4-9.9,7.9-2.6,2.5-4.8,4.8-6.6,7.1-1.8,2.2-3.7,4.7-5.8,7.5-2,2.7-3.5,4.6-4.5,5.5-.9.9-1.9,1.4-2.9,1.4-1.5,0-2.8-1.5-4.1-4.6-1.2-3.1-1.9-6.7-1.9-10.8s.3-4.5.9-5.9c.6-1.4,1.7-3.5,3.4-6.1,3.2-4.9,5.9-8.5,8.2-10.7s4.5-3.4,6.6-3.4,2.7.2,3.6.8,1.3,1.3,1.3,2.3-.1.9-.4,1.4c-.3.5-.6,1-.9,1.4-.3.4-1.1,1.2-2.2,2.4-7.3,8.1-10.9,13.3-10.9,15.7s.4,2,1.3,2,1.6-.9,3.2-2.7c1.6-1.8,3.6-4.1,6.2-7,2.5-2.9,5.5-5.9,8.9-9,3.4-3.1,7.3-6.2,11.7-9.1,2.4-1.7,4.5-2.6,6.1-2.6s1.5,1,2.2,3c.7,2,1.1,4.1,1.1,6.2s-1,2.6-3,4.6h0Z"/>
        <path class="cls-1" d="M672.6,61.6h3c2.4-4.4,4.7-7.5,6.6-9.3s4.2-2.7,6.8-2.7,3.8.6,3.8,1.7-1,2-3,4.5-3.5,4.5-4.5,6.2c1.6.2,3,.3,4.2.5,1.2.1,2.2.2,2.9.3-2.6,4.9-5.9,9.9-9.9,15-1.3,0-2.4-.2-3.2-.2s-1.8-.1-2.7-.2c-.9,0-2-.2-3.3-.2-2.5,4-4.6,7.6-6.2,10.7-1.7,3.2-3,6.1-3.9,8.7-.9,2.6-1.3,5.1-1.3,7.5s1.3,4.8,3.8,4.8,4-.9,6.9-2.8c2.8-1.9,6.6-4.7,11.4-8.6v4.6c-12.4,13.5-21.6,20.2-27.6,20.2s-3.7-.8-5-2.4-1.9-3.7-1.9-6.2.4-3.7,1.1-6.1,2-5.9,3.8-10.6c-.7.6-1.3,1.1-1.8,1.6-.6.5-1.1,1-1.6,1.4-.5.4-1,.9-1.5,1.4-.5.5-1.1,1-1.7,1.5v-4.8c4.8-4.1,10.7-11.2,17.5-21.3-.7,0-1.3,0-1.9,0-.6,0-1.3,0-2.1,0-2.7,0-4.7.2-6.1.6-.5.1-1.1.3-1.5.4-.5.2-.8.2-1,.2s-.3-.1-.3-.4c0-1.5.9-3.8,2.8-6.8,1.5-2.6,3-4.5,4.3-5.7,1.4-1.2,3-2.1,5-2.5,2-.4,4.7-.7,8.3-.7h0Z"/>
        <path class="cls-1" d="M716.8,97.4v5c-4.5,5.8-8.6,10.1-12.5,13-3.9,2.9-7.2,4.4-9.9,4.4s-6.6-2-8.4-5.9c-1.8-4-2.8-8.3-2.8-13s.2-3.5.5-5.2c.4-1.6.8-3,1.3-4,.5-1.1,1.5-2.7,2.8-5,6.5-10.2,12.5-15.3,18-15.3s4.2,1.1,4.2,3.2-.9,3.8-2.7,6.9c-1.8,3.1-3.4,5.4-4.9,6.7-4,3.9-6.6,6.6-7.8,8.1-1.2,1.5-1.8,3.2-1.8,5.2s.6,3,1.9,4.2c1.2,1.1,2.9,1.7,4.8,1.7s4.5-.8,7.2-2.4c2.6-1.6,6-4.1,10.1-7.6h0ZM712.1,66.6c-1.2,0-2.2-.4-3.3-1.3-1-.9-1.5-2-1.5-3.3,0-2,1-4.3,2.9-6.8,1.9-2.5,3.9-3.7,6-3.7s2.5.4,3.5,1.3,1.4,2.1,1.4,3.7-.9,4.2-2.8,6.6c-1.9,2.4-3.9,3.6-6.1,3.6Z"/>
        <path class="cls-1" d="M724.2,85.1c7-6.4,13.8-11.1,20.4-14.2,6.6-3.1,11.7-4.6,15.3-4.6s1.9.4,2.7,1.2c.8.8,1.5,1.7,2,2.8.5,1.1.7,1.8.7,2.3,0,.8-.3,1.4-1,1.8-.7.4-1.8.9-3.4,1.4.3.7.7,1.7,1.2,2.8.5,1.2.9,2.1,1.2,2.8.3.7.4,1.3.4,1.9,0,1.1-1.1,3.2-3.3,6.2-2.2,3-3.8,5.2-4.7,6.7s-1.3,3.2-1.3,5.2c0,3.4,1.6,5.1,4.7,5.1s8.3-3,15.1-9.1v4.2c-11.7,12.9-20,19.4-25,19.4s-3.1-.6-3.8-1.8c-.8-1.2-1.1-2.9-1.1-5.2,0-3.6,1.3-8.9,3.9-15.8-6.7,7.5-11.7,12.8-15,15.9s-6,4.7-8.1,4.7-2.3-.9-3.8-2.6c-1.5-1.8-2.9-4-4-6.8s-1.8-5.7-1.8-8.7.2-4,.6-5.4,1.2-2.9,2.4-4.5,3.1-3.5,5.7-6h0ZM757.3,77.5c-12,5.5-20.5,10.1-25.6,14-5.1,3.8-7.6,7.8-7.6,11.8s.2,2.7.8,3.6c.5.9,1.2,1.4,2.1,1.4s1.4-.3,2.7-1c4.8-2.9,9.3-6.6,13.3-11.2,4-4.6,8.8-10.8,14.4-18.7h0Z"/>
        <path class="cls-1" d="M806.6,96.7v5.1c-9.6,12.8-17.5,19.1-23.5,19.1s-5.8-1.8-7.7-5.3c-1.9-3.6-2.8-8.3-2.8-14.1s1.1-10.3,3.3-16.8c2.2-6.5,5.2-13,8.9-19.7,3.7-6.7,7.5-12.5,11.5-17.4,4-5,7.7-8.4,11.1-10.4,1.4-.8,2.5-1.2,3.2-1.2s1.6.4,1.9,1.3c.3.8.5,2.3.5,4.4,0,6.4-2.6,14.3-7.8,23.6s-12.5,18.8-21.8,28.6c-.5,2.4-.7,4.2-.7,5.5,0,2.9.6,5.3,1.9,7.2,1.3,1.8,3,2.8,5.3,2.8s2.4-.4,3.7-1.3c1.3-.9,2.7-2,4.2-3.3,1.5-1.3,4.3-4,8.6-7.9h0ZM785.9,84.2c2.4-2.3,4.7-5,6.9-8,2.2-3,4.3-6.2,6.3-9.6,2-3.4,3.5-6.5,4.7-9.2,1.1-2.7,1.7-4.8,1.7-6.2s-.4-1.6-1.1-1.6-.8.2-1.6.8c-2.8,2.3-6,6.8-9.5,13.5s-6,13.5-7.5,20.3h0Z"/>
      </g>
      <g>
        <path class="cls-1" d="M279.2,173.1c-2.7,1.8-6.2,2.7-10.7,2.7s-9.1-.7-11.9-2.1c-.8-.4-1.1-.9-.8-1.6l1.3-3.5c.3-.9.8-1.1,1.6-.8,2.6,1.1,5.5,1.6,8.7,1.6s4.5-.4,5.9-1.1,2.2-1.9,2.2-3.5-.2-1.2-.5-1.7-.6-1-1-1.3c-.4-.3-.9-.7-1.8-1.1-.8-.4-1.5-.8-2-1-.5-.2-1.3-.5-2.5-1-1.5-.6-2.7-1-3.5-1.4-.8-.4-1.8-.9-3-1.6-1.1-.7-2-1.4-2.6-2.2s-1.1-1.7-1.6-2.9-.7-2.5-.7-3.9c0-7,4.6-10.5,13.9-10.5s7.7.6,10.5,1.9c.8.4,1.1.9.8,1.6l-1.3,3.4c-.3.8-.9,1.1-1.8.8-2.1-.8-4.6-1.2-7.6-1.2-4.6,0-7,1.4-7,4.2s1,3,3.1,4.1c.7.3,2.1.9,4.2,1.8,1.2.5,2,.8,2.3.9.3.1,1,.5,2.1.9s1.7.8,2.1,1.1c.4.3.9.6,1.7,1.2.8.5,1.3,1,1.6,1.5s.6,1.1,1,1.7.7,1.4.8,2.2c.1.8.2,1.7.2,2.6,0,3.7-1.3,6.4-4,8.2h0Z"/>
        <path class="cls-1" d="M296.9,158.9v9.9h15.6c.9,0,1.4.4,1.4,1.3v3.9c0,.9-.5,1.4-1.4,1.4h-21.8c-.9,0-1.4-.5-1.4-1.4v-35.9c0-.9.4-1.3,1.3-1.3h21.6c.9,0,1.4.4,1.4,1.3v3.9c0,.9-.5,1.4-1.4,1.4h-15.4v9.2h14.6c.9,0,1.3.5,1.3,1.4v3.6c0,.9-.4,1.4-1.3,1.4h-14.6Z"/>
        <path class="cls-1" d="M334,136.7c5.4,0,9.4,1,12.1,3.1,2.6,2.1,4,5.4,4,9.9,0,6.4-3.1,10.3-9.4,11.7l9.3,12.2c.3.4.4.8.2,1.1s-.5.6-1.1.6h-5.2c-.7,0-1.4-.4-1.9-1.1l-8.9-11.8h-5.1v11.5c0,.9-.5,1.4-1.4,1.4h-4.9c-.9,0-1.4-.5-1.4-1.4v-35.9c0-.9.5-1.3,1.4-1.3h12.3,0ZM333.8,156.1c3.1,0,5.3-.5,6.6-1.5,1.3-1,2-2.6,2-4.8s-.6-3.9-2-4.9c-1.3-1-3.5-1.5-6.5-1.5h-5.9v12.8h5.9Z"/>
        <path class="cls-1" d="M367.7,175.4c-.8,0-1.4-.4-1.7-1.3l-12.2-35.8c-.1-.5-.1-.9,0-1.1.2-.3.5-.4,1-.4h5.3c.8,0,1.4.4,1.6,1.2l6.6,20.5,2.4,9.1h.1l2.4-9.1,6.6-20.5c.2-.8.8-1.2,1.6-1.2h5.4c.4,0,.8.1.9.4s.2.6,0,1.1l-12.1,35.8c-.3.9-.9,1.3-1.8,1.3h-6.2Z"/>
        <path class="cls-1" d="M393.7,138.1c0-.9.4-1.3,1.3-1.3h5c.9,0,1.4.4,1.4,1.3v35.9c0,.9-.5,1.4-1.4,1.4h-5c-.9,0-1.3-.5-1.3-1.4v-35.9Z"/>
        <path class="cls-1" d="M434.1,167.6c.8-.3,1.5,0,1.9.8l1.5,3.4c.3.6,0,1.2-.8,1.6-2.6,1.7-6.1,2.6-10.5,2.6s-10.1-1.7-13.2-5.1-4.7-8.3-4.7-14.9,1.5-11.5,4.6-14.9c3.1-3.4,7.4-5.1,13-5.1s7.7.8,10.4,2.5c.8.5,1,1.1.8,1.7l-1.5,3.4c-.3.8-1,1.1-1.9.7-2-.9-4.2-1.4-6.6-1.4-3.7,0-6.5,1.1-8.3,3.2-1.8,2.2-2.7,5.5-2.7,9.9s.9,7.8,2.8,9.9c1.9,2.1,4.7,3.2,8.5,3.2s4.7-.5,6.7-1.6h0Z"/>
        <path class="cls-1" d="M451.2,158.9v9.9h15.6c.9,0,1.4.4,1.4,1.3v3.9c0,.9-.5,1.4-1.4,1.4h-21.8c-.9,0-1.4-.5-1.4-1.4v-35.9c0-.9.4-1.3,1.3-1.3h21.6c.9,0,1.4.4,1.4,1.3v3.9c0,.9-.5,1.4-1.4,1.4h-15.4v9.2h14.6c.9,0,1.3.5,1.3,1.4v3.6c0,.9-.4,1.4-1.3,1.4h-14.6Z"/>
        <path class="cls-1" d="M508.5,136.7c.8,0,1.4.4,1.6,1.3l12.8,35.8c.2.4.1.8,0,1.1-.2.3-.5.4-.9.4h-5.3c-.8,0-1.3-.4-1.6-1.2l-2.5-7.2h-14.3l-2.5,7.2c-.3.8-.8,1.2-1.5,1.2h-5.3c-.5,0-.8-.1-1-.4-.2-.3-.2-.7,0-1.1l12.8-35.8c.3-.8.8-1.3,1.6-1.3h6.3,0ZM510.9,160.5l-5.3-16.2h-.2l-5.4,16.2h10.9,0Z"/>
        <path class="cls-1" d="M529.6,175.4c-.9,0-1.4-.5-1.4-1.4v-35.9c0-.9.4-1.3,1.3-1.3h11.9c5.5,0,9.6,1.1,12.3,3.2s4,5.6,4,10.5-1.3,8.4-4,10.5-6.8,3.2-12.3,3.2h-5.6v9.8c0,.9-.5,1.4-1.4,1.4h-4.9ZM541.4,157.6c3,0,5.2-.6,6.6-1.6,1.3-1.1,2-2.9,2-5.5s-.7-4.4-2-5.5c-1.3-1.1-3.5-1.6-6.6-1.6h-5.5v14.3h5.5Z"/>
        <path class="cls-1" d="M578.6,136.7c.8,0,1.3.4,1.7,1.3l12.8,35.8c.2.4.1.8,0,1.1-.2.3-.5.4-.9.4h-5.3c-.8,0-1.3-.4-1.6-1.2l-2.5-7.2h-14.3l-2.5,7.2c-.3.8-.8,1.2-1.5,1.2h-5.3c-.5,0-.8-.1-1-.4-.2-.3-.2-.7,0-1.1l12.8-35.8c.3-.8.8-1.3,1.7-1.3h6.3,0ZM580.9,160.5l-5.3-16.2h-.2l-5.4,16.2h10.9,0Z"/>
        <path class="cls-1" d="M611.9,136.7c5.4,0,9.4,1,12.1,3.1,2.6,2.1,4,5.4,4,9.9,0,6.4-3.2,10.3-9.4,11.7l9.3,12.2c.3.4.4.8.2,1.1s-.5.6-1.1.6h-5.2c-.7,0-1.4-.4-1.9-1.1l-8.9-11.8h-5.1v11.5c0,.9-.5,1.4-1.4,1.4h-4.9c-.9,0-1.4-.5-1.4-1.4v-35.9c0-.9.5-1.3,1.4-1.3h12.3,0ZM611.8,156.1c3.1,0,5.3-.5,6.6-1.5,1.3-1,2-2.6,2-4.8s-.7-3.9-2-4.9-3.5-1.5-6.5-1.5h-5.9v12.8h5.9Z"/>
        <path class="cls-1" d="M631.8,138.1c0-.9.4-1.3,1.3-1.3h25.4c.9,0,1.4.4,1.4,1.3v4.2c0,.9-.5,1.4-1.4,1.4h-8.8v30.4c0,.9-.5,1.4-1.4,1.4h-4.9c-.9,0-1.4-.5-1.4-1.4v-30.4h-8.8c-.9,0-1.4-.5-1.4-1.4v-4.2h0Z"/>
        <path class="cls-1" d="M682.6,165.3l-9.7-15.9v24.6c0,.9-.4,1.4-1.3,1.4h-4.8c-.9,0-1.4-.5-1.4-1.4v-35.9c0-.9.5-1.3,1.4-1.3h4.7c.8,0,1.3.3,1.6.8l10.8,17.7,10.8-17.7c.3-.5.8-.8,1.5-.8h4.7c.9,0,1.4.4,1.4,1.3v35.9c0,.9-.5,1.4-1.4,1.4h-4.8c-.9,0-1.3-.5-1.3-1.4v-24.6l-9.7,15.9c-.3.5-.7.7-1.2.7s-1-.2-1.2-.7h0Z"/>
        <path class="cls-1" d="M717.9,158.9v9.9h15.6c.9,0,1.4.4,1.4,1.3v3.9c0,.9-.5,1.4-1.4,1.4h-21.8c-.9,0-1.4-.5-1.4-1.4v-35.9c0-.9.4-1.3,1.3-1.3h21.6c.9,0,1.4.4,1.4,1.3v3.9c0,.9-.5,1.4-1.4,1.4h-15.4v9.2h14.7c.9,0,1.3.5,1.3,1.4v3.6c0,.9-.4,1.4-1.3,1.4h-14.7Z"/>
        <path class="cls-1" d="M772.1,174c0,.9-.4,1.4-1.3,1.4h-4.9c-.8,0-1.3-.3-1.7-.9l-15.4-24.9v24.4c0,.9-.4,1.4-1.3,1.4h-4.7c-.9,0-1.4-.5-1.4-1.4v-35.9c0-.9.5-1.3,1.4-1.3h4.8c.8,0,1.4.3,1.8.9l15.4,24.9v-24.5c0-.9.4-1.3,1.3-1.3h4.8c.9,0,1.3.4,1.3,1.3v36h0Z"/>
        <path class="cls-1" d="M777.7,138.1c0-.9.4-1.3,1.3-1.3h25.4c.9,0,1.4.4,1.4,1.3v4.2c0,.9-.5,1.4-1.4,1.4h-8.8v30.4c0,.9-.5,1.4-1.4,1.4h-4.9c-.9,0-1.4-.5-1.4-1.4v-30.4h-8.8c-.9,0-1.4-.5-1.4-1.4v-4.2h0Z"/>
      </g>
    </g>
  </g>
</svg>